<svg id="Layer_1" data-name="Layer 1" xmlns="http://www.w3.org/2000/svg" viewBox="0 0 363 122"><defs><style>.cls-1{fill:#004d43}.cls-1,.cls-3,.cls-4{fill-rule:evenodd}.cls-2,.cls-4{fill:#fff}.cls-3{fill:none;stroke:#fff;stroke-miterlimit:10;stroke-width:1.5px}</style></defs><path class="cls-1" d="M8.09 83.25A79.68 79.68 0 0 1 5 62V9.24L51.11 5l47.48 4.07v54.45A91 91 0 0 1 95.87 82c-1.55 6.69-6.82 20.91-44.26 36.25-32.61-14.59-37.78-21.11-43.52-35z"/><path class="cls-2" d="M128.91 28.19h-5.25a3.19 3.19 0 0 0-1.34.17 3.33 3.33 0 0 0-.69 1.17l-1 2.14a6.14 6.14 0 0 0-.64 2.18 1.25 1.25 0 0 0 .34 1 3.11 3.11 0 0 0 1.34.52c.29.06.44.17.45.34s-.12.24-.4.24h-.49l-1.4-.08H117.57l-.81.09q-.39 0-.39-.27a.31.31 0 0 1 .25-.32l.54-.16a2 2 0 0 0 .78-.7 6.31 6.31 0 0 0 .81-1.29l.43-1 7.46-16.57c.12-.3.26-.44.42-.44s.28.14.39.42l6.25 16 .31.78a7.22 7.22 0 0 0 1.14 2.19 3.77 3.77 0 0 0 1.83.68c.3 0 .44.17.43.35s-.14.24-.4.24h-.56c-.5-.05-1.39-.07-2.68-.07a20.32 20.32 0 0 0-2.53.09 2.53 2.53 0 0 1-.45.06c-.25 0-.38-.1-.38-.3s.12-.25.37-.3l.45-.1a.88.88 0 0 0 .72-1 11 11 0 0 0-.88-3.07l-.73-1.92a2.47 2.47 0 0 0-.48-.93 2.28 2.28 0 0 0-.95-.14zm.18-2.34l-2.28-5.75-.12-.3c-.11-.31-.24-.47-.38-.48s-.14.08-.23.27l-2.83 6.29a1.9 1.9 0 0 0-.19.54c0 .25.23.38.67.38h4.78q.72 0 .72-.36a1.25 1.25 0 0 0-.07-.34z"/><path class="cls-2" d="M121.76 36.2h-.51l-1.39-.08h-1.59a5.46 5.46 0 0 0-.63 0l-.84.08c-.6 0-.64-.4-.64-.52a.55.55 0 0 1 .43-.56l.53-.16c.07 0 .26-.12.66-.62a6.11 6.11 0 0 0 .78-1.24l.42-1 7.46-16.58c.34-.78 1-.77 1.29 0l6.56 16.77a6.55 6.55 0 0 0 1.07 2.1 3.35 3.35 0 0 0 1.7.61c.59.11.66.44.65.62s-.09.49-.66.49h-.57c-.5-.05-1.4-.07-2.67-.07a20.46 20.46 0 0 0-2.49.08 2.77 2.77 0 0 1-.49.06.55.55 0 0 1-.63-.55c0-.17.07-.45.57-.55l.44-.1c.25 0 .53-.18.53-.74a11.42 11.42 0 0 0-.87-3l-.73-1.92a2.49 2.49 0 0 0-.39-.81 2.69 2.69 0 0 0-.84-.07h-5.25a2.8 2.8 0 0 0-1.2.13 3.1 3.1 0 0 0-.6 1.05l-1 2.14a5.92 5.92 0 0 0-.63 2.08 1 1 0 0 0 .26.8 2.82 2.82 0 0 0 1.23.46c.51.1.64.37.65.58a.4.4 0 0 1-.12.33.7.7 0 0 1-.49.19zm-3.49-.64h1.62l1.39.08a4.08 4.08 0 0 0 .59 0 .71.71 0 0 0-.21-.07 3.18 3.18 0 0 1-1.46-.57 1.48 1.48 0 0 1-.43-1.18 6.39 6.39 0 0 1 .67-2.29l1-2.14c.41-.93.64-1.17.79-1.27a2.76 2.76 0 0 1 1.48-.22h5.25c.79 0 1 .09 1.14.17s.28.28.57 1l.73 1.92a11.33 11.33 0 0 1 .9 3.16 1.13 1.13 0 0 1-.93 1.24l-.45.1a.39.39 0 0 0-.17.06.21.21 0 0 0 .13 0h.4a18.56 18.56 0 0 1 2.58-.1c1.29 0 2.2 0 2.71.08a2.53 2.53 0 0 0 .68 0 1.05 1.05 0 0 0-.23-.07 4 4 0 0 1-2-.74 7.22 7.22 0 0 1-1.19-2.29l-.32-.78-6.25-16c-.08-.22-.15-.25-.15-.25s-.08 0-.19.28L119 33.29a7.36 7.36 0 0 1-.85 1.34 2.26 2.26 0 0 1-.91.79l-.54.16c-.06 0-.06 0-.06.06a.24.24 0 0 0 .13 0l.79-.08a6.35 6.35 0 0 1 .71 0zm10.24-8.49h-4.79c-.79 0-.91-.4-.91-.63a1.61 1.61 0 0 1 .21-.65l2.83-6.28c.06-.13.21-.47.5-.42s.48.37.58.64l.12.3 2.36 6a1.55 1.55 0 0 1 .08.4c0 .3-.17.64-.98.64zm-2.17-7.42a.08.08 0 0 0 0 .05l-2.85 6.3a1.54 1.54 0 0 0-.17.43c0 .11.34.12.41.12h4.78c.32 0 .47-.06.47-.1a1 1 0 0 0-.06-.26l-.07-.26-2.4-6a1.12 1.12 0 0 0-.11-.28zM162.76 17.63l.46 3.49.05.36-.05.15a.26.26 0 0 1-.21.14c-.12 0-.29-.19-.53-.61q-2.72-4.74-7.36-4.74a7.62 7.62 0 0 0-5.85 2.27 8.74 8.74 0 0 0-2.13 6.22 11.29 11.29 0 0 0 2.37 7.42 7.59 7.59 0 0 0 6.11 2.87 8.7 8.7 0 0 0 4.29-1.2 6.67 6.67 0 0 0 2.92-2.83c.25-.51.45-.77.58-.78s.24.08.24.27v.16l-.06.33-.35 1.85-.06.26c0 .25-.27.51-.68.78a13.45 13.45 0 0 1-7.39 2.14 10.41 10.41 0 0 1-7.54-2.77 9.69 9.69 0 0 1-2.86-7.3 10.3 10.3 0 0 1 3-7.53 10.07 10.07 0 0 1 7.44-3 11.7 11.7 0 0 1 5.63 1.38l.58.3.23.1.25.09a.43.43 0 0 0 .22-.12 1.1 1.1 0 0 1 .43-.23c.12-.02.22.17.27.53z"/><path class="cls-2" d="M155.11 36.4a10.67 10.67 0 0 1-7.72-2.84 10 10 0 0 1-2.94-7.48 10.59 10.59 0 0 1 3-7.71 10.32 10.32 0 0 1 7.62-3.07 12.08 12.08 0 0 1 5.75 1.41l.94.45.06-.05a1.13 1.13 0 0 1 .59-.28c.31 0 .5.26.56.77l.52 3.9-.06.2a.55.55 0 0 1-.43.3c-.25 0-.46-.19-.77-.74-1.75-3.06-4.16-4.62-7.14-4.62a7.41 7.41 0 0 0-5.66 2.2 8.51 8.51 0 0 0-2.07 6 11 11 0 0 0 2.32 7.25 7.33 7.33 0 0 0 5.94 2.91 8.59 8.59 0 0 0 4.17-1.14 6.42 6.42 0 0 0 2.81-2.71c.32-.65.54-.91.79-.93a.45.45 0 0 1 .36.12.53.53 0 0 1 .15.41v.19l-.46 2.39a1.56 1.56 0 0 1-.79.95 13.85 13.85 0 0 1-7.54 2.12zm0-20.59a9.83 9.83 0 0 0-7.25 2.92 10.06 10.06 0 0 0-2.86 7.35 9.47 9.47 0 0 0 2.78 7.11 10.17 10.17 0 0 0 7.36 2.7 13.27 13.27 0 0 0 7.25-2.09c.46-.3.55-.51.57-.61l.06-.28.39-2.15a4.3 4.3 0 0 0-.32.57 7 7 0 0 1-3 2.93 9 9 0 0 1-4.42 1.2 7.85 7.85 0 0 1-6.31-3 11.6 11.6 0 0 1-2.43-7.58 9 9 0 0 1 2.21-6.39 7.86 7.86 0 0 1 6-2.36c3.18 0 5.73 1.64 7.59 4.88a2 2 0 0 0 .29.44v-.3l-.46-3.48a1.22 1.22 0 0 0-.08-.31 1.1 1.1 0 0 0-.26.16.64.64 0 0 1-.37.17h-.08l-.5-.19-.6-.32a11.58 11.58 0 0 0-5.56-1.37zm8.27 14.83zM184.51 28.19h-5.26a3.13 3.13 0 0 0-1.33.17 3.15 3.15 0 0 0-.7 1.17l-.95 2.14a6.21 6.21 0 0 0-.65 2.18 1.25 1.25 0 0 0 .35 1 3.06 3.06 0 0 0 1.34.52c.29.06.44.17.45.34s-.13.24-.41.24h-.49l-1.39-.08H173.21l-.81.09q-.39 0-.39-.27a.31.31 0 0 1 .25-.32l.53-.16a2 2 0 0 0 .79-.7 6.31 6.31 0 0 0 .81-1.29l.42-1 7.46-16.57c.13-.3.27-.44.43-.44s.28.14.39.42l6.24 16 .32.78a7 7 0 0 0 1.13 2.19 3.77 3.77 0 0 0 1.83.68c.3 0 .45.17.44.35s-.15.24-.41.24h-.55c-.5-.05-1.4-.07-2.69-.07a20.23 20.23 0 0 0-2.52.09 2.77 2.77 0 0 1-.45.06c-.25 0-.38-.1-.38-.3s.12-.25.36-.3l.45-.1a.88.88 0 0 0 .73-1 11.15 11.15 0 0 0-.89-3.07l-.7-1.94a2.82 2.82 0 0 0-.48-.93 2.34 2.34 0 0 0-1.01-.12zm.17-2.34l-2.27-5.75-.12-.3c-.12-.31-.24-.47-.38-.48s-.14.08-.23.27l-2.83 6.29a1.62 1.62 0 0 0-.19.54c0 .25.22.38.67.38h4.77c.49 0 .73-.12.73-.36a1.25 1.25 0 0 0-.07-.34z"/><path class="cls-2" d="M177.35 36.2h-.5l-1.4-.08h-1.59a5.46 5.46 0 0 0-.63 0c-.69.08-.79.08-.83.08-.6 0-.65-.4-.65-.52a.56.56 0 0 1 .43-.56l.54-.16c.06 0 .26-.12.66-.62a7.13 7.13 0 0 0 .78-1.24l.42-1L182 15.54c.34-.79 1-.77 1.29 0l6.56 16.77a6.33 6.33 0 0 0 1.07 2.1 3.3 3.3 0 0 0 1.7.61c.58.11.65.44.64.62s-.09.49-.66.49h-.57c-.5-.05-1.39-.07-2.67-.07a20.25 20.25 0 0 0-2.48.08 2.88 2.88 0 0 1-.49.06c-.47 0-.64-.29-.64-.55s.08-.45.57-.55l.45-.1c.26 0 .52-.18.52-.74a11 11 0 0 0-.87-3l-.72-1.92a2.49 2.49 0 0 0-.39-.81 2.69 2.69 0 0 0-.84-.07h-5.26a2.77 2.77 0 0 0-1.19.13c-.05 0-.23.2-.6 1.05l-1 2.14a6.06 6.06 0 0 0-.62 2.08 1 1 0 0 0 .26.8 2.81 2.81 0 0 0 1.22.46c.52.1.64.37.65.58a.43.43 0 0 1-.11.33.73.73 0 0 1-.47.17zm-3.49-.64h1.62l1.4.08a4.31 4.31 0 0 0 .61 0l-.23-.07a3.23 3.23 0 0 1-1.47-.58 1.52 1.52 0 0 1-.42-1.18 6.59 6.59 0 0 1 .66-2.29l1-2.14c.41-.93.63-1.17.78-1.27a2.79 2.79 0 0 1 1.48-.22h5.26c.79 0 1 .09 1.14.17s.27.28.57 1l.72 1.92a11 11 0 0 1 .9 3.16 1.12 1.12 0 0 1-.93 1.24l-.44.1a.39.39 0 0 0-.17.06h.13a2.76 2.76 0 0 0 .4 0 18.47 18.47 0 0 1 2.57-.1c1.29 0 2.2 0 2.71.08a2.46 2.46 0 0 0 .68 0 .73.73 0 0 0-.23-.07 4 4 0 0 1-1.95-.74 7 7 0 0 1-1.2-2.29l-.32-.78-6.24-16c-.09-.22-.15-.25-.16-.25s-.07 0-.18.28l-7.89 17.54a6.8 6.8 0 0 1-.84 1.34 2.26 2.26 0 0 1-.91.79l-.54.16c-.06 0-.06 0-.06.06a.24.24 0 0 0 .13 0l.78-.08a6.45 6.45 0 0 1 .64.08zm10.24-8.49h-4.78c-.8 0-.92-.4-.92-.63a1.82 1.82 0 0 1 .21-.65l2.84-6.28c.05-.13.21-.48.5-.42s.48.37.58.64l.11.3 2.36 6a1.28 1.28 0 0 1 .09.4c0 .3-.17.64-.99.64zm-2.16-7.42v.05l-2.86 6.3a1.63 1.63 0 0 0-.16.43c0 .11.34.12.41.12h4.77c.33 0 .47-.06.47-.1a1 1 0 0 0-.06-.26l-.07-.26-2.39-6a1.12 1.12 0 0 0-.11-.28zM204.24 19.41a3.69 3.69 0 0 0-.49-2.15 2.18 2.18 0 0 0-1.64-.8q-.48 0-.48-.3c0-.19.12-.28.38-.28l1.14.06h1c1 0 1.74 0 2.28-.07l1.35-.13c.58-.05 1.22-.08 1.92-.08 4 0 6.94 1 8.93 3a9.45 9.45 0 0 1 2.71 7 10.82 10.82 0 0 1-1.19 5 9.09 9.09 0 0 1-3.31 3.61A10.75 10.75 0 0 1 211 36c-.25 0-.69 0-1.33-.07-1.3-.09-2.43-.13-3.39-.13a19.41 19.41 0 0 0-2.7.16c-.35 0-.62.08-.82.09s-.51-.09-.51-.33.13-.27.4-.33a1.75 1.75 0 0 0 1.28-.72 5 5 0 0 0 .29-2.14zm2.22-1.15V33.2a1.22 1.22 0 0 0 .89 1.22 12.42 12.42 0 0 0 2 .51 12.14 12.14 0 0 0 2 .21 8.21 8.21 0 0 0 4.46-1.24q3.38-2.09 3.37-7.1a11.91 11.91 0 0 0-1-5 8.76 8.76 0 0 0-2.9-3.6 9.14 9.14 0 0 0-5.46-1.61 5.42 5.42 0 0 0-2.92.5 1.46 1.46 0 0 0-.44 1.17z"/><path class="cls-2" d="M202.7 36.27a.7.7 0 0 1-.52-.17.53.53 0 0 1-.17-.41c0-.17.08-.47.61-.58a1.58 1.58 0 0 0 1.11-.6 4.61 4.61 0 0 0 .26-2v-13.1a3.46 3.46 0 0 0-.45-2 1.94 1.94 0 0 0-1.46-.7c-.62-.05-.71-.37-.71-.55s.17-.54.64-.54l1.16.06h1c1 0 1.72 0 2.26-.07l1.34-.13c.59-.05 1.24-.07 1.95-.07 4 0 7.08 1 9.11 3.06a9.78 9.78 0 0 1 2.79 7.17 11.09 11.09 0 0 1-1.22 5.16 9.44 9.44 0 0 1-3.4 3.71 11.17 11.17 0 0 1-6 1.71c-.26 0-.72 0-1.35-.07a30.84 30.84 0 0 0-6 0c-.36 0-.64.08-.85.09zm-.82-20.12a.9.9 0 0 0 .25.05 2.46 2.46 0 0 1 1.83.91 3.94 3.94 0 0 1 .54 2.3V32.5a5.34 5.34 0 0 1-.32 2.26 2 2 0 0 1-1.45.85.4.4 0 0 0-.21.09s.06.08.24.06l.81-.08a30.77 30.77 0 0 1 6.13 0c.63 0 1.07.08 1.32.08a10.61 10.61 0 0 0 5.7-1.63 9 9 0 0 0 3.22-3.52 10.56 10.56 0 0 0 1.16-4.92 9.24 9.24 0 0 0-2.64-6.8c-1.92-1.94-4.87-2.92-8.74-2.92-.69 0-1.33 0-1.9.07l-1.35.13c-.55.05-1.33.08-2.3.08h-1l-1.17-.12a.33.33 0 0 0-.12.02zm9.46 19.25a11.5 11.5 0 0 1-2.07-.22 11.78 11.78 0 0 1-2-.52 1.47 1.47 0 0 1-1-1.46V18.26a1.68 1.68 0 0 1 .47-1.4 5.65 5.65 0 0 1 3.08-.54 9.47 9.47 0 0 1 5.55 1.68 9.16 9.16 0 0 1 3 3.7 12.27 12.27 0 0 1 1.07 5.13c0 3.42-1.17 5.88-3.48 7.32a8.54 8.54 0 0 1-4.62 1.25zm-1.58-18.57c-1.82 0-2.51.24-2.76.44a1.28 1.28 0 0 0-.28 1V33.2a1 1 0 0 0 .72 1 11 11 0 0 0 1.92.49 10.72 10.72 0 0 0 2 .22 8 8 0 0 0 4.33-1.21c2.15-1.33 3.24-3.65 3.24-6.88a11.52 11.52 0 0 0-1-4.91 8.53 8.53 0 0 0-2.8-3.5 9 9 0 0 0-5.37-1.58zM236.55 18.22v5.86a1.61 1.61 0 0 0 .12.81c.08.09.33.14.75.14h2.24a12.72 12.72 0 0 0 2.41-.18 2 2 0 0 0 1-.42 2.77 2.77 0 0 0 .42-1.22c.05-.24.18-.36.37-.35s.29.14.29.39v.32c-.08.94-.13 1.79-.13 2.56a17.14 17.14 0 0 0 .09 1.76v.42c0 .24-.1.36-.28.36a.36.36 0 0 1-.38-.32l-.08-.41a1.93 1.93 0 0 0-.7-1.32 3.36 3.36 0 0 0-1.77-.35h-3.2a2 2 0 0 0-.95.15.63.63 0 0 0-.24.58v5.83c0 .83.15 1.34.44 1.55a5 5 0 0 0 2.24.3q5.7 0 7.32-2.57a.51.51 0 0 1 .33-.26c.18 0 .27.12.27.38a3.9 3.9 0 0 1-1.06 2.24 4 4 0 0 1-3.19 1.53c-.28 0-.65 0-1.13-.06-1.85-.17-3.38-.26-4.59-.26a24.13 24.13 0 0 0-3.58.18 6.3 6.3 0 0 1-.76.1c-.31 0-.46-.11-.46-.31s.12-.28.38-.35l.55-.16c.69-.19 1-.87 1-2V19.91a5.84 5.84 0 0 0-.46-2.8 2 2 0 0 0-1.78-.72q-.42 0-.42-.27c0-.27.22-.4.65-.4a8.24 8.24 0 0 1 1 .07 44.54 44.54 0 0 0 5 .23c1.18 0 2.23 0 3.14-.06l2.06-.1c.57 0 .92 0 1-.06.27 0 .46-.05.59-.05.31 0 .47.14.47.42a1.6 1.6 0 0 1 0 .33c0 .13-.07.52-.12 1.16l-.05.85a5.78 5.78 0 0 1-.15 1 .33.33 0 0 1-.33.22c-.18 0-.28-.13-.28-.43V19a2.43 2.43 0 0 0-.17-.89 1.57 1.57 0 0 0-1.12-.87 15 15 0 0 0-3.09-.21H238a2 2 0 0 0-1.16.22 1.36 1.36 0 0 0-.29.97z"/><path class="cls-2" d="M242.86 36.29c-.29 0-.67 0-1.15-.06-1.83-.18-3.37-.26-4.57-.26a24 24 0 0 0-3.54.17 4.92 4.92 0 0 1-.8.1c-.67 0-.72-.43-.72-.56s.08-.46.57-.59l.55-.16c.58-.16.86-.75.86-1.79V19.9a5.59 5.59 0 0 0-.42-2.66 1.72 1.72 0 0 0-1.56-.6c-.63 0-.68-.4-.68-.52s.09-.66.91-.66a9.25 9.25 0 0 1 1 .08 46.33 46.33 0 0 0 5 .23c1.18 0 2.23 0 3.13-.06l2.06-.1c.7 0 .94 0 1-.06a5 5 0 0 1 .63-.06.65.65 0 0 1 .73.68 2.09 2.09 0 0 1 0 .38c0 .07-.05.31-.11 1.13l-.06.85a5 5 0 0 1-.16 1.11.59.59 0 0 1-.55.4.56.56 0 0 1-.37-.13.75.75 0 0 1-.18-.56V19a2.1 2.1 0 0 0-.16-.79 1.28 1.28 0 0 0-.94-.72 14.23 14.23 0 0 0-3-.21H238c-.73 0-.94.12-1 .16s-.17.22-.17.81v5.86a1.82 1.82 0 0 0 .06.64 1.59 1.59 0 0 0 .55.05h2.24a13.14 13.14 0 0 0 2.32-.2 1.64 1.64 0 0 0 .87-.34 2.56 2.56 0 0 0 .36-1.1.6.6 0 0 1 .64-.55c.12 0 .52.07.52.64v.34c-.09.93-.13 1.78-.13 2.54 0 .58 0 1.16.08 1.73v.45c0 .45-.27.62-.53.62a.61.61 0 0 1-.63-.53l-.08-.4a1.68 1.68 0 0 0-.59-1.16 3 3 0 0 0-1.62-.31h-3.21a1.62 1.62 0 0 0-.81.11c-.1.06-.12.23-.12.36v5.83c0 1 .2 1.25.33 1.33a4.4 4.4 0 0 0 2.09.26c3.69 0 6.08-.82 7.11-2.45a.74.74 0 0 1 .52-.38.53.53 0 0 1 .37.13.66.66 0 0 1 .17.51 4 4 0 0 1-1.11 2.4 4.26 4.26 0 0 1-3.37 1.66zm-5.72-.83c1.22 0 2.77.08 4.62.26.45 0 .83.05 1.1.05a3.74 3.74 0 0 0 3-1.46 3.67 3.67 0 0 0 1-2.08.31.31 0 0 0 0-.12l-.11.14c-1.13 1.78-3.66 2.69-7.54 2.69-1.68 0-2.17-.2-2.38-.35-.38-.26-.56-.83-.56-1.76V27a.88.88 0 0 1 .36-.81 2.25 2.25 0 0 1 1.08-.18h3.21a3.5 3.5 0 0 1 1.9.39 2.14 2.14 0 0 1 .81 1.49l.08.4c0 .11 0 .12.13.12s0 0 0-.11v-.4c-.05-.58-.08-1.18-.08-1.78 0-.77 0-1.64.13-2.58v-.3a.26.26 0 0 0 0-.13s-.1 0-.13.14a2.81 2.81 0 0 1-.48 1.34 2.06 2.06 0 0 1-1.15.5 13.38 13.38 0 0 1-2.46.18h-2.24c-.52 0-.8-.07-.94-.22s-.19-.31-.19-1v-5.83a1.49 1.49 0 0 1 .35-1.19 2.08 2.08 0 0 1 1.33-.29h2.28a14.74 14.74 0 0 1 3.15.22 1.76 1.76 0 0 1 1.28 1 2.53 2.53 0 0 1 .2 1v.38a.36.36 0 0 0 0 .19c.06 0 .07 0 .08-.07a5 5 0 0 0 .13-1l.06-.85c0-.65.09-1 .12-1.2a1.52 1.52 0 0 0 0-.27c0-.15-.06-.21-.77-.11-.08 0-.29 0-1.07.06l-2.06.1c-.9 0-2 .06-3.15.06a44.73 44.73 0 0 1-5-.24c-.84-.09-1.34-.1-1.34.07a.65.65 0 0 0 .16 0 2.2 2.2 0 0 1 2 .84 6 6 0 0 1 .49 2.93v13.29c0 1.29-.42 2-1.23 2.28l-.55.16a.39.39 0 0 0-.2.09s0 .06.21.06a5 5 0 0 0 .71-.1 27.05 27.05 0 0 1 3.66-.17zM275.23 21.15c-.83 1.44-1.37 2.44-1.65 3l-1.29 2.77-1.49 3c-.07.17-.48 1.08-1.22 2.72-.3.68-.56 1.24-.78 1.67l-.27.55c-.19.46-.39.69-.61.69s-.45-.24-.66-.72l-.41-.79-.29-.61-5.46-11.73-.33 7.19v3.54c0 1.77.6 2.65 1.8 2.83.59.1.89.24.89.43s-.14.33-.42.33h-.54c-1.08-.1-1.91-.15-2.5-.15a16.49 16.49 0 0 0-2 .13 3.2 3.2 0 0 1-.45.05c-.29 0-.44-.11-.44-.32s.12-.26.35-.31a2.11 2.11 0 0 0 1.48-1 5.76 5.76 0 0 0 .51-2.52l.21-4.22c.14-3.05.21-5 .21-5.78a8.19 8.19 0 0 0-.68-3.83 3 3 0 0 0-2.28-1.53c-.29-.05-.43-.17-.43-.36s.12-.31.36-.31h.48a9.15 9.15 0 0 0 1 0h1.51a4.66 4.66 0 0 1 .54-.05c.42 0 .77.31 1.05.92l.16.33 6 13.06.74 1.49c.1.25.18.38.23.38s.13-.09.22-.28l.17-.39.13-.29 6.82-14.62a2 2 0 0 1 .33-.57.49.49 0 0 1 .38-.11l.64.05h.48a14.3 14.3 0 0 0 1.47-.06h.42c.19 0 .29.09.29.29a.33.33 0 0 1-.29.34l-.63.16a1.42 1.42 0 0 0-1 .91 7 7 0 0 0-.29 2.4l.08 3.51.28 7.89.07 1.84a2.45 2.45 0 0 0 .41 1.58 2.35 2.35 0 0 0 1.48.64c.51.08.77.2.77.38s-.18.29-.54.29h-.36l-1.13-.11a11.59 11.59 0 0 0-1.22-.06c-.3 0-.77 0-1.42.06l-1.74.09c-.28 0-.42-.09-.42-.26s.13-.26.37-.33a1.7 1.7 0 0 0 1.14-.75 4 4 0 0 0 .29-1.83l-.05-2.37z"/><path class="cls-2" d="M263 36.27a5.12 5.12 0 0 1-.56 0c-1.07-.09-1.91-.14-2.48-.14a14.4 14.4 0 0 0-2 .13 3.28 3.28 0 0 1-.48 0c-.64 0-.69-.43-.69-.57s.05-.46.55-.56a1.88 1.88 0 0 0 1.31-.86 6 6 0 0 0 .48-2.42l.2-4.21c.14-3 .22-5 .22-5.77a8.13 8.13 0 0 0-.65-3.71 2.8 2.8 0 0 0-2.1-1.4c-.57-.09-.65-.42-.65-.61a.55.55 0 0 1 .62-.57h.5a8.71 8.71 0 0 0 1 0h1.49a4.41 4.41 0 0 1 .56 0c.52 0 1 .36 1.28 1.06l.16.33 6 13.03.74 1.49.28-.62 6.82-14.62a2.72 2.72 0 0 1 .37-.65.81.81 0 0 1 .57-.18l.67.06h.45c.6 0 1.08 0 1.44-.05h.42a.5.5 0 0 1 .42.13.53.53 0 0 1 .15.41.59.59 0 0 1-.48.59l-.63.15a1.2 1.2 0 0 0-.86.76 7 7 0 0 0-.28 2.31l.09 3.5.35 9.73a2.27 2.27 0 0 0 .34 1.43A2.24 2.24 0 0 0 280 35c.27 0 1 .14 1 .63 0 .21-.11.54-.8.54h-.38l-1.14-.12a11 11 0 0 0-1.19 0c-.29 0-.77 0-1.4.06l-1.76.08c-.62 0-.67-.39-.67-.51s.07-.44.55-.57a1.53 1.53 0 0 0 1-.64 3.67 3.67 0 0 0 .26-1.7l-.06-2.37-.41-8.35c-.58 1-1 1.76-1.19 2.21L272.52 27l-1.48 3c-.06.12-.29.64-.7 1.54l-.52 1.18c-.31.69-.57 1.24-.79 1.68-.13.25-.21.44-.26.54s-.35.83-.85.83-.64-.28-.9-.86c0-.09-.17-.35-.4-.78l-.29-.62-5-10.83-.33 6.22v3.53c0 1.57.52 2.41 1.58 2.58.52.08 1.11.23 1.11.68-.02.14-.07.58-.69.58zm-3-.68c.6 0 1.42 0 2.53.14a4.36 4.36 0 0 0 .51 0h.16c.01 0-.08-.12-.67-.22-1.33-.2-2-1.24-2-3.08v-3.56l.38-8.23L267.08 34c.24.44.37.71.41.8.18.41.35.56.43.56s.2-.11.38-.53l.27-.56c.22-.43.47-1 .78-1.66l.53-1.18.69-1.55 1.49-3.05 1.29-2.83c.28-.57.84-1.59 1.66-3l.44-.77.41 10.12.06 2.37a4.23 4.23 0 0 1-.32 2 2 2 0 0 1-1.31.88.41.41 0 0 0-.15.07h.14l1.73-.08c.64 0 1.12-.07 1.43-.07a12 12 0 0 1 1.25.06l1.13.12a2.29 2.29 0 0 0 .6 0 3.31 3.31 0 0 0-.54-.13 2.54 2.54 0 0 1-1.64-.72 2.71 2.71 0 0 1-.47-1.75l-.07-1.83-.27-7.89-.09-3.51a6.93 6.93 0 0 1 .32-2.51 1.66 1.66 0 0 1 1.21-1.06l.62-.16c.1 0 .1-.05.1-.09a2.13 2.13 0 0 0-.44 0 14.11 14.11 0 0 1-1.48.06h-.5l-.62-.06h-.2a1.93 1.93 0 0 0-.28.5L269 31.84c-.1.22-.23.42-.45.42s-.34-.23-.47-.53l-.73-1.48-6.22-13.39c-.23-.51-.5-.77-.81-.77a3.52 3.52 0 0 0-.5 0h-2.55a3.08 3.08 0 0 0-.55 0c0 .1.17.13.22.14a3.34 3.34 0 0 1 2.47 1.67 8.56 8.56 0 0 1 .71 3.95c0 .81-.07 2.76-.22 5.79l-.2 4.22a6.28 6.28 0 0 1-.54 2.64 2.4 2.4 0 0 1-1.65 1.11.36.36 0 0 0-.15.06s.16.08.59 0a15.44 15.44 0 0 1 2.05-.08zm8.44-3.8zM295.53 20.18v10.89a9.45 9.45 0 0 0 .24 2.69 2.31 2.31 0 0 0 .72 1.05 3.27 3.27 0 0 0 1.35.44c.48.06.72.18.72.35s-.15.34-.45.34a4.16 4.16 0 0 1-.55 0 10.92 10.92 0 0 0-1.54-.07h-2.11l-1.71.1a6.54 6.54 0 0 1-.7 0c-.26 0-.39-.1-.39-.29s.15-.28.45-.33a1.93 1.93 0 0 0 1.43-.76 6 6 0 0 0 .31-2.43V19.69a4.8 4.8 0 0 0-.41-2.43 2.47 2.47 0 0 0-1.76-.84c-.3-.06-.46-.18-.47-.35s.13-.31.42-.31h.26a25.91 25.91 0 0 0 2.82.13c.72 0 1.33 0 1.85-.05l1-.08h.36q.39 0 .39.27c0 .17-.12.3-.37.39l-.76.29c-.75.29-1.1 1.43-1.1 3.47z"/><path class="cls-2" d="M298.11 36.2a5.18 5.18 0 0 1-.59-.05 12.67 12.67 0 0 0-1.5-.06h-2.11l-1.69.11a6.75 6.75 0 0 1-.72 0c-.47 0-.64-.29-.64-.55s.08-.49.66-.58a1.66 1.66 0 0 0 1.24-.64 5.37 5.37 0 0 0 .29-2.3V19.69a4.47 4.47 0 0 0-.37-2.29 2.32 2.32 0 0 0-1.59-.73c-.54-.1-.67-.37-.68-.58a.56.56 0 0 1 .13-.4.92.92 0 0 1 .83-.17 23.14 23.14 0 0 0 2.79.13c.71 0 1.33 0 1.83-.05l1-.08h.38c.6 0 .65.41.65.53s-.1.47-.55.63l-.75.28c-.41.16-.91.85-.91 3.24v10.87a8.86 8.86 0 0 0 .23 2.6 2.1 2.1 0 0 0 .63.93 2.9 2.9 0 0 0 1.23.39c.26 0 .95.13.95.61-.03.14-.08.6-.74.6zm-4.21-.66h2.12a13.49 13.49 0 0 1 1.57.07 4 4 0 0 0 .52 0c.18 0 .19 0 .19-.08a2.93 2.93 0 0 0-.5-.11 3.28 3.28 0 0 1-1.46-.48 2.51 2.51 0 0 1-.8-1.16 9.27 9.27 0 0 1-.27-2.79V20.18c0-2.18.41-3.4 1.24-3.71l.75-.29c.06 0 .21-.08.22-.15a2.28 2.28 0 0 0-.49 0l-1 .08c-.52 0-1.15.05-1.87.05a24.26 24.26 0 0 1-2.85-.13 1 1 0 0 0-.4 0s.07.08.27.11a2.66 2.66 0 0 1 1.92 1 4.93 4.93 0 0 1 .46 2.57v12.42a5.91 5.91 0 0 1-.35 2.55 2.12 2.12 0 0 1-1.6.89c-.2 0-.24.08-.24.08a2.13 2.13 0 0 0 .8 0zM326.57 17.63l.46 3.49.05.36-.05.15a.26.26 0 0 1-.21.14c-.12 0-.29-.19-.53-.61q-2.71-4.74-7.36-4.74a7.62 7.62 0 0 0-5.85 2.27 8.74 8.74 0 0 0-2.08 6.22 11.29 11.29 0 0 0 2.37 7.42 7.59 7.59 0 0 0 6.11 2.87 8.7 8.7 0 0 0 4.24-1.2 6.67 6.67 0 0 0 2.92-2.83c.25-.51.45-.77.58-.78s.23.08.23.27v.16l-.06.33-.34 1.85-.06.26c0 .25-.27.51-.68.78a13.45 13.45 0 0 1-7.39 2.14 10.41 10.41 0 0 1-7.54-2.77 9.73 9.73 0 0 1-2.86-7.3 10.3 10.3 0 0 1 3-7.53 10.07 10.07 0 0 1 7.44-3 11.7 11.7 0 0 1 5.63 1.38l.58.3.23.1.25.09a.43.43 0 0 0 .22-.12 1.1 1.1 0 0 1 .43-.23c.12-.02.22.17.27.53z"/><path class="cls-2" d="M318.92 36.4a10.67 10.67 0 0 1-7.72-2.84 10 10 0 0 1-2.94-7.48 10.59 10.59 0 0 1 3-7.71 10.32 10.32 0 0 1 7.62-3.07 12.08 12.08 0 0 1 5.75 1.41l.94.45.06-.05a1.13 1.13 0 0 1 .59-.28c.31 0 .5.26.56.77l.52 3.9-.06.2a.55.55 0 0 1-.44.33c-.24 0-.46-.19-.77-.74-1.75-3.06-4.16-4.62-7.14-4.62a7.41 7.41 0 0 0-5.66 2.2 8.51 8.51 0 0 0-2.07 6 11 11 0 0 0 2.32 7.25 7.35 7.35 0 0 0 5.95 2.88 8.59 8.59 0 0 0 4.17-1.14 6.42 6.42 0 0 0 2.81-2.71c.32-.65.54-.91.79-.93a.47.47 0 0 1 .36.12.53.53 0 0 1 .15.41v.19l-.46 2.39a1.56 1.56 0 0 1-.79.95 13.83 13.83 0 0 1-7.54 2.12zm0-20.59a9.83 9.83 0 0 0-7.25 2.92 10.06 10.06 0 0 0-2.89 7.35 9.47 9.47 0 0 0 2.78 7.11 10.17 10.17 0 0 0 7.36 2.7 13.27 13.27 0 0 0 7.25-2.09c.46-.3.55-.51.57-.61l.06-.28.39-2.15a4.3 4.3 0 0 0-.32.57 7 7 0 0 1-3 2.93 9 9 0 0 1-4.42 1.2 7.82 7.82 0 0 1-6.3-3 11.55 11.55 0 0 1-2.44-7.58 9 9 0 0 1 2.21-6.39 7.86 7.86 0 0 1 6-2.36c3.18 0 5.73 1.64 7.59 4.88a2.41 2.41 0 0 0 .29.44v-.3l-.46-3.48a1.22 1.22 0 0 0-.08-.31 1.1 1.1 0 0 0-.26.16.64.64 0 0 1-.37.17h-.08l-.5-.19-.6-.32a11.58 11.58 0 0 0-5.53-1.37zm8.27 14.83zM348.32 28.19h-5.26a3.13 3.13 0 0 0-1.33.17 3.15 3.15 0 0 0-.7 1.17l-.95 2.14a6.21 6.21 0 0 0-.65 2.18 1.29 1.29 0 0 0 .34 1 3.17 3.17 0 0 0 1.35.52c.29.06.44.17.45.34s-.13.24-.41.24h-.49l-1.39-.08H337.02l-.81.09q-.39 0-.39-.27a.31.31 0 0 1 .25-.32l.53-.16a2 2 0 0 0 .79-.7 6.31 6.31 0 0 0 .81-1.29l.42-1 7.46-16.57c.13-.3.27-.44.42-.44s.29.14.4.42l6.24 16 .32.78a7.28 7.28 0 0 0 1.13 2.19 3.77 3.77 0 0 0 1.83.68c.3 0 .45.17.44.35s-.15.24-.41.24h-.55c-.5-.05-1.4-.07-2.69-.07a20.23 20.23 0 0 0-2.52.09 2.77 2.77 0 0 1-.45.06c-.26 0-.38-.1-.38-.3s.12-.25.36-.3l.45-.1a.88.88 0 0 0 .73-1 11.15 11.15 0 0 0-.89-3.07l-.72-1.92a2.82 2.82 0 0 0-.48-.93 2.34 2.34 0 0 0-.99-.14zm.17-2.34l-2.28-5.75-.11-.3c-.12-.31-.24-.47-.38-.48s-.14.08-.23.27l-2.83 6.29a1.62 1.62 0 0 0-.19.54c0 .25.22.38.67.38h4.77c.49 0 .73-.12.73-.36a1.83 1.83 0 0 0-.07-.34z"/><path class="cls-2" d="M341.16 36.2h-.5l-1.39-.08h-1.6a5.46 5.46 0 0 0-.63 0l-.83.08c-.6 0-.65-.4-.65-.52a.56.56 0 0 1 .43-.56l.54-.16c.06 0 .26-.12.66-.62a6.77 6.77 0 0 0 .78-1.24l.42-1 7.46-16.58c.34-.79 1-.77 1.29 0l6.56 16.77a6.33 6.33 0 0 0 1.07 2.1 3.3 3.3 0 0 0 1.7.61c.58.11.65.44.64.62s-.07.49-.66.49h-.57c-.5-.05-1.39-.07-2.67-.07a20.25 20.25 0 0 0-2.48.08 2.88 2.88 0 0 1-.49.06c-.47 0-.64-.29-.64-.55s.08-.45.57-.55l.45-.1c.26 0 .52-.18.52-.74a10.32 10.32 0 0 0-.87-3l-.72-1.92a2.49 2.49 0 0 0-.39-.81 2.69 2.69 0 0 0-.84-.07h-5.26a2.77 2.77 0 0 0-1.19.13c-.05 0-.23.2-.6 1.05l-1 2.14a6.06 6.06 0 0 0-.62 2.08 1 1 0 0 0 .26.8 2.81 2.81 0 0 0 1.22.46c.52.1.64.37.65.58a.43.43 0 0 1-.11.33.71.71 0 0 1-.51.19zm-3.49-.64h1.62l1.4.08a3.93 3.93 0 0 0 .58 0 .62.62 0 0 0-.2-.07 3.23 3.23 0 0 1-1.47-.57 1.52 1.52 0 0 1-.42-1.18 6.59 6.59 0 0 1 .66-2.29l1-2.14c.41-.93.63-1.17.78-1.27a2.79 2.79 0 0 1 1.48-.22h5.26c.79 0 1 .09 1.14.17s.27.28.57 1l.72 1.92a11 11 0 0 1 .9 3.16 1.12 1.12 0 0 1-.93 1.24l-.44.1a.39.39 0 0 0-.17.06h.13a2.76 2.76 0 0 0 .4 0 18.47 18.47 0 0 1 2.57-.1c1.29 0 2.21 0 2.71.08a2.59 2.59 0 0 0 .69 0 1 1 0 0 0-.24-.07 4 4 0 0 1-1.95-.74 7 7 0 0 1-1.2-2.29l-.32-.78-6.24-16c-.09-.22-.15-.25-.16-.25s-.07 0-.18.28l-7.89 17.54a7 7 0 0 1-.84 1.34 2.26 2.26 0 0 1-.91.79l-.54.16c-.06 0-.07 0-.07.06a.3.3 0 0 0 .14 0l.78-.08a6.45 6.45 0 0 1 .64.07zm10.24-8.49h-4.78c-.8 0-.92-.4-.92-.63a1.82 1.82 0 0 1 .21-.65l2.84-6.28c.05-.13.2-.48.5-.42s.48.37.58.64l.11.3 2.36 6a1.28 1.28 0 0 1 .09.4c0 .3-.17.64-.99.64zm-2.16-7.42v.05l-2.86 6.3a1.63 1.63 0 0 0-.16.43c0 .11.34.12.41.12h4.77c.33 0 .47-.06.47-.1a1 1 0 0 0-.06-.26l-.07-.26-2.39-6a1.12 1.12 0 0 0-.11-.28zM117.65 58.86c0-1.34-1.49-1-1.49-1.38 0-.17 0-.21.18-.21.68 0 1.35.08 2 .08s1.15-.08 1.72-.08c.29 0 .35 0 .35.19 0 .44-1.33 0-1.33 1.4v9.92c0 1.25 1.64.83 1.64 1.38 0 .13 0 .19-.37.19s-1.22-.08-2-.08c-1.13 0-1.51.08-1.77.08s-.39-.1-.39-.28c0-.53 1.44.07 1.44-1.75zM131 60.91c0-3.84-2.23-2.77-2.23-3.45 0-.11.18-.19.27-.19.3 0 .58.08.87.08s.57-.08.85-.08.37.3.48.43l8.81 9.8c.11.13.18.21.22.21s.06-.06.06-.21v-7.71c0-2.42-2.05-1.72-2.05-2.33a.18.18 0 0 1 .2-.19c.55 0 1.09.08 1.68.08s1.42-.08 1.86-.08a.17.17 0 0 1 .19.17c0 .48-1.09.15-1.09 1.5v10.69c0 .53 0 .79-.17.79s-.31-.09-.7-.52l-7.91-8.9s-.26-.35-.39-.35-.12.05-.12.42v7.55c0 1.66 1.62 1 1.62 1.52 0 .09 0 .24-.2.24-.45 0-1-.08-1.87-.08-.64 0-1.6.08-1.73.08s-.24-.11-.24-.21c0-.64 1.62.17 1.62-2.41zM156 59.14c0-.13.08-.83-.18-.85h-3c-1.15 0-1.18.28-1.52 1.29-.05.19-.07.43-.31.43s-.18-.13-.18-.22L151 58c0-.23 0-.73.33-.73 1.44 0 2.86.08 5.25.08 3.34 0 5-.08 5.4-.08s.52.12.54.54l.09 1.48c0 .18 0 .4-.2.4-.68 0 .31-1.4-1.57-1.4h-2.64c-.83 0-.74-.07-.74.91v9.41c0 1.55 1.5.94 1.5 1.52 0 .05 0 .22-.17.22-.44 0-1-.08-1.49-.08a22.89 22.89 0 0 0-2.53.08c-.17 0-.23-.06-.23-.24 0-.45 1.46-.26 1.46-1.37zM173.72 62.65c0 .63 0 .63.7.63h2c1.92 0 1.42-1.48 1.86-1.48.15 0 .21.2.21.35V65.47c0 .17-.08.24-.21.24-.57 0 .06-1.62-1.49-1.62h-2.73c-.39 0-.34.31-.34.59v3.4c0 1.09-.14 1.53 1.41 1.53 4.26 0 4.89-1.9 5.13-1.9s.15.18.15.22a2.9 2.9 0 0 1-.93 1.79c-.59.66-1 .63-1.81.63-1.4 0-2.8-.11-4.2-.08-.74 0-1.52.08-2.26.08-.16 0-.27 0-.27-.19s.22-.18.81-.48.52-.74.52-1.6v-8.42c0-.83 0-1.72-1-1.87-.15 0-.56-.07-.56-.29s.12-.23.65-.23c3.49 0 4.45.08 5.23.08.36 0 2.06-.08 2.64-.08.14 0 .18.19.18.41 0 2-.26 2.2-.37 2.2-.44 0-.15-.89-.44-1.31-.48-.63-2.4-.52-3.14-.52-1.77 0-1.74-.07-1.74 1.16zM198 68.33c1.33 2 2.23 1.35 2.23 1.8 0 .22-1 .22-1.2.22-1.35 0-2.07-.94-2.77-2l-2-3.23c-.66-1-.39-1-2.45-1-.59 0-.48.34-.48.52v3.9c0 1.58 1.92 1 1.92 1.64 0 .18-.17.15-.32.15s-.59-.08-2.12-.08c-.7 0-1.4.08-2.1.08a.19.19 0 0 1-.19-.21c0-.46 1.35-.2 1.35-1.6v-9.4c0-1.77-1.59-1-1.59-1.64 0-.11.15-.23.37-.23a9.63 9.63 0 0 0 1.18.08c1.07 0 2.13-.08 3.08-.08.3 0 4.38-.36 4.38 3.2a3.55 3.55 0 0 1-2.33 3.19zm-6.72-5.07c0 .35 1.14.26 2 .26a2.42 2.42 0 0 0 2.57-2.63c0-2.25-1.72-3-3.53-3-.67 0-1.05 0-1.05.69zM209.81 60.91c0-3.84-2.24-2.77-2.24-3.45 0-.11.19-.19.28-.19.3 0 .57.08.87.08s.57-.08.85-.08.37.3.48.43l8.81 9.8c.11.13.18.21.22.21s0-.06 0-.21v-7.71c0-2.42-2-1.72-2-2.33a.18.18 0 0 1 .21-.19c.55 0 1.08.08 1.68.08s1.42-.08 1.86-.08a.17.17 0 0 1 .19.17c0 .48-1.09.15-1.09 1.5v10.69c0 .53 0 .79-.17.79s-.31-.09-.7-.52l-7.94-8.9s-.26-.35-.39-.35-.13.05-.13.42v7.55c0 1.66 1.63 1 1.63 1.52 0 .09 0 .24-.21.24-.44 0-1-.08-1.86-.08-.65 0-1.61.08-1.74.08s-.24-.11-.24-.21c0-.64 1.63.17 1.63-2.41zM239.05 65.93c-.19-.42-.3-.7-.82-.7h-4.06c-.35 0-.68 0-.87.39l-1.18 2.59a1.93 1.93 0 0 0-.13.64c0 1.29 1.31.74 1.31 1.22s-.25.28-.49.28c-.52 0-1-.08-1.56-.08s-1 .08-1.47.08c-.11 0-.17-.1-.17-.21 0-.38.87-.07 1.35-1.12l4.41-9.42c1.09-2.33 1.15-2.62 1.39-2.62s.33.54.38.68l3.86 9.51a11.58 11.58 0 0 0 .93 2.11c.55.85 1.62.44 1.62.9 0 .17-.13.17-.26.17-.75 0-1.51-.08-2.27-.08-.5 0-1 .08-1.49.08-.11 0-.41 0-.41-.19 0-.44 1.11-.26 1.11-1a8.05 8.05 0 0 0-.57-1.75zm-5-1.84c-.13.26 0 .33.24.33H238c.4 0 .38-.13.29-.37l-1.81-4.45c-.09-.22-.18-.22-.29 0zM254.51 59.14c0-.13.08-.83-.18-.85h-3c-1.15 0-1.18.28-1.52 1.29-.05.19-.07.43-.31.43s-.18-.13-.18-.22l.2-1.79c0-.23 0-.73.33-.73 1.44 0 2.86.08 5.24.08 3.35 0 5-.08 5.41-.08s.52.12.54.54l.09 1.48c0 .18 0 .4-.2.4-.68 0 .31-1.4-1.57-1.4h-2.64c-.83 0-.74-.07-.74.91v9.41c0 1.55 1.5.94 1.5 1.52 0 .05 0 .22-.17.22-.44 0-1-.08-1.5-.08a23.36 23.36 0 0 0-2.53.08c-.16 0-.22-.06-.22-.24 0-.45 1.46-.26 1.46-1.37zM271.09 58.86c0-1.34-1.5-1-1.5-1.38 0-.17 0-.21.19-.21.68 0 1.34.08 2 .08s1.14-.08 1.71-.08c.3 0 .35 0 .35.19 0 .44-1.33 0-1.33 1.4v9.92c0 1.25 1.65.83 1.65 1.38 0 .13-.06.19-.37.19s-1.22-.08-2-.08c-1.13 0-1.52.08-1.78.08s-.38-.1-.38-.28c0-.53 1.44.07 1.44-1.75zM282.81 63.74a6.56 6.56 0 0 1 6.77-6.63 6.42 6.42 0 0 1 6.67 6.54c0 4.15-2.86 6.83-7 6.83s-6.44-2.85-6.44-6.74zm1.34-.54c0 3.42 2.24 6.72 5.89 6.72 2.7 0 4.86-2.16 4.86-5.57s-2.27-6.63-5.87-6.63c-3.1 0-4.88 2.57-4.88 5.48zM306.21 60.91c0-3.84-2.23-2.77-2.23-3.45 0-.11.18-.19.27-.19.3 0 .57.08.87.08s.57-.08.85-.08.37.3.48.43l8.81 9.8c.11.13.18.21.22.21s0-.06 0-.21v-7.71c0-2.42-2-1.72-2-2.33a.19.19 0 0 1 .21-.19c.55 0 1.09.08 1.68.08s1.42-.08 1.86-.08a.17.17 0 0 1 .19.17c0 .48-1.09.15-1.09 1.5v10.69c0 .53 0 .79-.17.79s-.31-.09-.7-.52l-7.94-8.9s-.26-.35-.39-.35-.13.05-.13.42v7.55c0 1.66 1.63 1 1.63 1.52 0 .09 0 .24-.2.24-.45 0-1-.08-1.87-.08-.65 0-1.61.08-1.74.08s-.23-.11-.23-.21c0-.64 1.62.17 1.62-2.41zM335.45 65.93c-.19-.42-.3-.7-.81-.7h-4.07c-.35 0-.68 0-.86.39l-1.18 2.59a1.71 1.71 0 0 0-.13.64c0 1.29 1.31.74 1.31 1.22s-.26.28-.5.28c-.52 0-1-.08-1.55-.08s-1 .08-1.48.08c-.11 0-.17-.1-.17-.21 0-.38.87-.07 1.35-1.12l4.41-9.42c1.09-2.33 1.15-2.62 1.39-2.62s.33.54.39.68l3.84 9.51a11.54 11.54 0 0 0 .92 2.11c.55.85 1.62.44 1.62.9 0 .17-.12.17-.25.17-.76 0-1.52-.08-2.27-.08-.5 0-1 .08-1.5.08-.11 0-.41 0-.41-.19 0-.44 1.11-.26 1.11-1a8.05 8.05 0 0 0-.57-1.75zm-5-1.84c-.13.26 0 .33.24.33h3.66c.41 0 .39-.13.29-.37l-1.8-4.45c-.1-.22-.19-.22-.3 0zM350.91 68.08c0 1.09-.14 1.53 1.41 1.53 4.26 0 4.89-1.9 5.13-1.9s.15.18.15.22a2.9 2.9 0 0 1-.93 1.79c-.59.66-1 .63-1.8.63-1.41 0-2.81-.11-4.21-.08-.74 0-1.52.08-2.26.08-.16 0-.27 0-.27-.19s.22-.18.81-.48.52-.74.52-1.6v-9.37c0-1-1.56-.83-1.56-1.19s.13-.25.37-.25c.39 0 1 .08 1.87.08s1.49-.08 1.77-.08.35 0 .35.26c0 .43-1.35 0-1.35 1.57zM116.18 92.05c-.07-.37 0-.57.2-.57s.26.22.36.61a3.93 3.93 0 0 0 3.87 2.77c1.76 0 3.47-1 3.47-2.92 0-3.56-7.49-1.57-7.49-6.39 0-2.34 2-3.47 4.1-3.47a6.5 6.5 0 0 1 3.1.67c.16 0 .2-.21.39-.21s.2.06.22.26l.27 2.51c0 .15 0 .28-.2.28s-.33-.39-.39-.55a3.52 3.52 0 0 0-3.52-2.4c-1.46 0-3 .7-3 2.4 0 3.47 7.49 1.44 7.49 6.53 0 1.55-1.09 3.88-5.28 3.88-1.36 0-3-.68-3.12-1zM138.57 84.11c0-.13.08-.83-.18-.85h-3c-1.15 0-1.18.28-1.52 1.3-.05.18-.07.42-.31.42s-.19-.13-.19-.22l.21-1.79c0-.22 0-.72.33-.72 1.44 0 2.86.07 5.24.07 3.35 0 5-.07 5.41-.07s.52.11.54.54l.09 1.47c0 .19 0 .41-.2.41-.68 0 .31-1.41-1.57-1.41h-2.64c-.83 0-.74-.07-.74.91v9.42c0 1.55 1.5.94 1.5 1.51 0 .06 0 .22-.17.22-.44 0-1-.07-1.5-.07-2.06 0-2.41.07-2.53.07s-.22 0-.22-.24c0-.44 1.46-.26 1.46-1.36zM156 90.39c0 3 1.91 4.3 4.41 4.3 3.47 0 4.26-2.29 4.26-4.46v-6c0-1.88-1.71-1.1-1.71-1.81a.22.22 0 0 1 .18-.18c.72 0 1.44.07 2.16.07.35 0 .68-.07 1-.07.09 0 .24.09.24.2 0 .52-1.09.11-1.09 1.81V90c0 .91.22 5.47-5.15 5.47-4.86 0-5.78-2.71-5.78-5.56v-6.24c0-1.09-1.5-.65-1.5-1.24 0-.13.31-.18.41-.18.48 0 .94.07 1.44.07s1.18-.07 1.75-.07c.09 0 .59 0 .59.18 0 .52-1.23 0-1.23 1.33zM176.74 84.23c0-1.89-1.51-1.3-1.51-1.8 0-.13.14-.18.25-.18.58 0 1.11.07 1.67.07 1.21 0 2.41-.07 4-.07 3.27 0 6.48 2.47 6.48 5.89 0 4.25-2 7.18-7.12 7.18-.95 0-1.89-.07-2.83-.07l-2.07.07c-.14 0-.18-.07-.18-.18 0-.43 1.31 0 1.31-1.72zm1.46 8.41c0 .3-.06 1.19.11 1.35a4.63 4.63 0 0 0 2.84.83c2.62 0 5.12-1.4 5.12-5.67a6 6 0 0 0-6.27-6.44c-1.76 0-1.83.3-1.83 1.16zM197.6 83.84c0-1.35-1.5-1-1.5-1.39 0-.16 0-.2.19-.2.68 0 1.34.07 2 .07s1.14-.07 1.71-.07c.3 0 .36 0 .36.18 0 .45-1.33 0-1.33 1.41v9.91c0 1.26 1.64.83 1.64 1.39 0 .13-.06.18-.37.18s-1.22-.07-2-.07c-1.13 0-1.52.07-1.78.07s-.38-.09-.38-.28c0-.53 1.44.08 1.44-1.75zM212.23 87.62c0 .63 0 .63.71.63h2c1.92 0 1.42-1.48 1.86-1.48.15 0 .21.21.21.35v3.33c0 .16-.08.24-.21.24-.57 0 .06-1.63-1.49-1.63h-2.73c-.39 0-.34.32-.34.59v3.4c0 1.09-.14 1.53 1.41 1.53 4.26 0 4.89-1.9 5.13-1.9s.15.19.15.22a2.91 2.91 0 0 1-.92 1.79c-.6.67-1 .63-1.81.63-1.41 0-2.81-.11-4.21-.07-.74 0-1.52.07-2.26.07-.16 0-.27 0-.27-.18s.22-.19.81-.48.52-.74.52-1.61v-8.42c0-.83 0-1.72-1-1.86-.15 0-.55-.08-.55-.3s.11-.22.64-.22c3.49 0 4.45.07 5.23.07.37 0 2.06-.07 2.64-.07.14 0 .18.18.18.41 0 2-.26 2.19-.37 2.19-.44 0-.15-.88-.44-1.31-.48-.63-2.4-.52-3.14-.52-1.77 0-1.74-.07-1.74 1.17zM227.15 92.05c-.08-.37 0-.57.2-.57s.26.22.35.61a3.94 3.94 0 0 0 3.88 2.77c1.75 0 3.47-1 3.47-2.92 0-3.56-7.5-1.57-7.5-6.39 0-2.34 2-3.47 4.1-3.47a6.41 6.41 0 0 1 3.1.67c.17 0 .21-.21.39-.21s.21.06.22.26l.28 2.51c0 .15 0 .28-.2.28s-.34-.39-.39-.55a3.52 3.52 0 0 0-3.53-2.4c-1.46 0-3 .7-3 2.4 0 3.47 7.5 1.44 7.5 6.53 0 1.55-1.09 3.88-5.28 3.88-1.37 0-3-.68-3.12-1zM116.16 45.03H359v1.03H116.16z"/><path class="cls-3" d="M8.09 83.25A79.68 79.68 0 0 1 5 62V9.24L51.11 5l47.48 4.07v54.45A91 91 0 0 1 95.87 82c-1.55 6.69-6.82 20.91-44.26 36.25-32.61-14.59-37.78-21.11-43.52-35z"/><path class="cls-4" d="M51.15 8.09l-43.59 4V62a75.34 75.34 0 0 0 2.92 20.06c5.43 13.13 10.33 19.3 41.15 33.12C87 100.68 92 87.24 93.46 80.91 95.66 73.47 96 63.42 96 63.42V11.94zm42.06 55s-.44 9.53-2.41 16.44c-1.38 5.95-6 18.58-39.16 32.22C22.79 98.77 18.2 93 13.12 80.63a71.18 71.18 0 0 1-2.73-18.86V14.86l40.8-3.77 42 3.62z"/><path class="cls-4" d="M82 90.06a8.24 8.24 0 0 1-5.3 2.64c-5.27.24-7-1.65-9.61-4.43s-2.92-6.21-2.71-6.83.62-1.17 3.14-2 3.07-2.95 2.29-3.53-.65-1.35.5-1.81 4.2-1.55 5.34-2.86c1.72-2 .83-3.18-.34-3.68s-1.34-1.33-.85-2.13 1.73-.88 2.85-1.21 2.57-.61 3.32-4c1-4-1.5-3.56-2.28-3.56s-2.23.57-2.33-.72.53-1.46 2.2-2.66 2.36-1.94 2.73-4-.44-2.77-2.45-2.88-1.22-1.88-.13-3.15c1.38-1.49.91-3.25-.69-4.36a2.45 2.45 0 0 0-3.8 1.11c-.58 1.37-2 1.73-2.27.64s-1.37-1.5-2.69-1-1.25 2.23-1.22 3.21a4.28 4.28 0 0 1-.7 2.92c-.66.68-1.7-.36-2.71-1.56s-2.85.07-4 1.71a6 6 0 0 0-.55 4.79 21.53 21.53 0 0 1 1.61 3.83c.35 1.67-1.91 1.66-2.39 1-1.11-.79-2-1.23-3.57.29s.13 4.53 1.13 5.68 1 2.26-.83 2.43-2 1-2 2.88S56 71 56 71s.44.41 1.47 1.43.72 1.71-.29 2.44c-1.84 1.2 1.8 3.24 3.48 4.08s2.27 1.33 2.48 2.53a15.55 15.55 0 0 0 6.77 10.62c1.37 1 1.19 1.53-.18 1.49s-4.76-.06-9.34-3.3c-5-3.82-6.75-8.11-7.31-11.2a86.3 86.3 0 0 0-3.6-13.16c-1-3-1.46-3.08-1.84-2.82s-.07 1.07.95 3.09a62.54 62.54 0 0 1 3.68 14.56c0 1.63-1 2-2.37.08-2.54-3.67-4.15-8.6-4.42-15.37a183.79 183.79 0 0 1 .85-19.84 4.36 4.36 0 0 1 1.49-3.16c.87-.55.92-.94.45-1.33s-.46-1.07-.67-.54-.76 1.81-1.35 3-1 .87-1 .16a70.37 70.37 0 0 0-1.78-7.33c-.61-1.69-1.65-2.51-1.87-3.63s-.6-.66-1.41.36 0 1.06.73 1.26 2.16 2 3.05 6.21A57.17 57.17 0 0 1 45 50.14c0 1.47-.38 1.37-1.3.63a8.93 8.93 0 0 1-1.58-1.65s-.53-.85-.84-1-.26.5-.35.64c-.26.39 1.61 1.93 2.36 2.45a15.28 15.28 0 0 1 1.26 1s-.41 7.81-.4 13.95 1.23 10.35 6 17.09 12.65 11.2 20.3 11.53S81.33 92.25 82.1 91s.57-1.81-.1-.94zM68 73.62a2.75 2.75 0 0 0-1.28.62c-.24.24-.51.26-.57.11 0 0-.15-.21.34-.54a4.56 4.56 0 0 1 1.32-.81c.46-.12 1-.17 1.07.09s-.12.47-.82.53zm1-2.29a7.15 7.15 0 0 0-2.94 1.16c-.18.08-.34.13-.44 0s0-.24.17-.39a5.51 5.51 0 0 1 3-1.38c2.07-.26 2.92-.33 2.95.27s-1.5.37-2.74.34zm.73-2.07a8.56 8.56 0 0 0-3.19 1.16c-.19.09-.36.13-.46 0s0-.25.17-.4a6.31 6.31 0 0 1 3.25-1.38c2.24-.25 3.16-.33 3.19.28s-1.61.38-2.96.34zm.32-4.18c.58 0 1.19 0 1.3.26s-.2.42-1.07.37a3.75 3.75 0 0 0-1.65.4c-.32.2-.66.18-.72 0 0 0-.15-.23.5-.48a5.64 5.64 0 0 1 1.64-.55zm-.71-1a4.19 4.19 0 0 1 1.16-.27c.41 0 .82.07.88.27s-.17.27-.77.17a2.69 2.69 0 0 0-1.15.16c-.24.12-.47.08-.49 0s-.09-.25.37-.41zm0 2.91c2-.18 2.81-.23 2.82.34s-1.44.33-2.64.27a7.53 7.53 0 0 0-2.86 1c-.17.09-.32.12-.41 0s0-.22.17-.36a5.49 5.49 0 0 1 2.9-1.3zm7.57-6.48c0 .47-.93.45-2 .35l-1.41-.15c-1.21-.11-2.82.73-3.74 1.09-.22.08-.42.12-.53-.07s0-.29.23-.45a7.21 7.21 0 0 1 3.83-1.33c2.55-.17 3.61-.19 3.6.51zm-.77-1.89c0 .42-.83.4-1.8.31l-1.25-.13a8.73 8.73 0 0 0-3.34 1c-.2.08-.38.11-.47-.07s0-.25.2-.39a6.36 6.36 0 0 1 3.42-1.19c2.29-.15 3.23-.15 3.22.42zm-2.76-4.81c.53-.08 1.08-.09 1.2.16s-.15.39-1 .4a3.69 3.69 0 0 0-1.48.48c-.28.21-.59.21-.65.07s-.15-.2.42-.47a5.38 5.38 0 0 1 1.49-.69zm-.53-1.65a5.78 5.78 0 0 1 1.64-.53c.57 0 1.17 0 1.27.33s-.22.42-1.08.33a3.52 3.52 0 0 0-1.64.35c-.32.19-.66.15-.7 0-.02-.07-.16-.31.49-.53zm.3 3.76c.68 0 1.39 0 1.52.33s-.25.5-1.27.42a4.49 4.49 0 0 0-1.95.44c-.38.23-.78.19-.84 0 0 0-.17-.27.59-.55a6.93 6.93 0 0 1 1.93-.69zM76.41 50c.07.22-.19.32-.85.21a2.87 2.87 0 0 0-1.29.21c-.26.14-.51.09-.54 0s-.1-.19.41-.34a4 4 0 0 1 1.3-.34c.45-.09.91-.02.97.26zM62 77a10.26 10.26 0 0 0-.72-1.62A16.34 16.34 0 0 0 59.81 74c-1.08-.71-.73-.92.2-.63l1.79 1.15s-1.13-2.89-2.68-4-3.39-2.44-1.19-1.88a9.6 9.6 0 0 1 2.7 1.84A10.9 10.9 0 0 0 58.52 67c-1.16-1-1.83-2.44-.41-1.48A10.54 10.54 0 0 1 60.54 68a13.75 13.75 0 0 0-1.83-3.93c-1-1-.49-2.07 1.25.33a12.86 12.86 0 0 1 1.38 2.82 22.06 22.06 0 0 0-1.61-5c-.93-1.61-1.57-2.92-.77-2.48.78.6 2.63 3.29 3.44 7.32a18.36 18.36 0 0 0-1.33-8.2c-.68-1.49-.44-2.23.63-.59.55 1.25 1 2.06 1 2.06s.28-4.54-.29-6.47c-.51-1.76-1.52-5.33-.33-3.49.12.18.3.56.47.86s.3.82.39 1.14a20.14 20.14 0 0 1 .62 5.48c0 2 .23 2.08.23 2.08a14.76 14.76 0 0 0 .5-3.64c0-1.87 0-4.33-.69-5.76-.54-1.11-.49-2.35.31-1.54a4.54 4.54 0 0 1 .77 1.31 16.62 16.62 0 0 1 .11 9c1.21-1.16 1.51-4.78 1.38-7.3-.12-2.26-.61-5 .39-3.6a5.19 5.19 0 0 1 .5 1.56c.17.83.16 4.68.16 4.68a11.89 11.89 0 0 0 1.26-4.28 28.88 28.88 0 0 0-.08-5s.35-1.75.84.18a17.45 17.45 0 0 1 0 4.76 14.22 14.22 0 0 0 .76-2.19 14.73 14.73 0 0 0 .25-2c.12-1.1-.28-2.6.4-2.75.35-.06.83 1 .57 3.43.6 0 1-1.65 1-2.57s.75-2.71 1-.35c0 .42.37 0 1-.86s1.27-1.67 1.72-1.37 0 .64-1.42 2.74a60.59 60.59 0 0 0-10.8 32.78c-.01 1-1.17 1.59-1.72-.16zM40.06 59.2a12.68 12.68 0 0 0-8.27 2.56c-3.6 2.95-4.37 6.51-3.44 9.42a5.73 5.73 0 0 0 5.31 4.23 5.11 5.11 0 0 0 5.7-5c.28-4-2.11-4.89-3.65-4.92A2.58 2.58 0 0 0 32.92 68c0 1.48 1 1.62 1.5 1.64s.53-.7.13-.85-1.16-1 0-2a2.25 2.25 0 0 1 3.13.48 4.93 4.93 0 0 1-.36 5.48 4.55 4.55 0 0 1-6.92-.46 6.35 6.35 0 0 1 0-7.17c2.16-3 4.17-4.35 7.77-4.65 2-.09 3.88.23 4-.52s-1.45-.68-2.11-.75zM28.51 33.42l.6-1.25c.58-1.11 2.85-5.74 5-8.19 2.46-2.81 3.24-3.76 2.93-4.18S33.21 17 31 17s-3.59 1.1-5.37 2-2.4.84-3.67 1.41c-.08 0-.18.19-.22.25a5 5 0 0 0 .14 1.69s.17.16.29.06a7.6 7.6 0 0 0 .72-1c.33-.43 1.12-.53.29.76s-1.9 2.72-1.42 3 1-.82 1.56-1.82 1.45-2.2 1.7-1.91-.77 1.79-1.38 2.62-1.28 2.3-1 2.56 1.7-2.3 2.21-3.18 1.59-2.48 1.95-2.28-1.16 2.29-2 3.49c-.38.56-.79 1.29-1.12 1.83s-.78 1.67-.53 1.81c.46.25 1.5-2 2.34-3.29s2-3.65 2.31-3.39.16.68-1 2.66c-.74 1.2-3.2 5.33-2.64 5.79s1.48-2.5 2.17-3.78 2-3.21 2-3.21.86-1.22 1.12-1.09 0 .6-.44 1.25c-.28.47-.62 1-1 1.65-1.17 1.95-3.17 6-2.82 6.52s1.42-2.32 2.4-4 2.31-3.55 2.31-3.55.57-.82.89-.67 0 .76-.8 2-3.49 6.36-3.1 7.09 1.73-2.71 2.37-4.05 2.43-4.22 2.76-4-.49 1.56-1.5 3.5-3.17 5.66-2.01 5.7zM36.5 27.83s-.32-.64.21-.83 1.53 1 1.13 1.59-1.34-.76-1.34-.76zM37.75 34.35s-.56.46-.86 0 .64-1.73 1.29-1.46-.43 1.46-.43 1.46zM35.08 36.1s-.72 0-.68-.53 1.56-1 1.91-.39-1.23.92-1.23.92zM32.28 36.07a.43.43 0 0 1-.09-.69c.34-.46 1.43-.24 1.3.39s-1.21.3-1.21.3zM34.61 32.9a.44.44 0 0 1-.09-.7c.34-.45 1.43-.23 1.3.4s-1.21.3-1.21.3zM38 21.08a.45.45 0 0 1 .39-.59c.55-.12 1.23.75.72 1.15S38 21.08 38 21.08zM38.4 23.72a.45.45 0 0 1 .71 0c.43.36.15 1.44-.48 1.27s-.23-1.27-.23-1.27zM33.67 27.74s.35-.63.8-.29 0 1.84-.67 1.82-.13-1.53-.13-1.53zM32.25 30.7a.93.93 0 0 1 1-.23c.59.26 0 1.45-.87 1.44s-.13-1.21-.13-1.21zM35.84 29.8a1 1 0 0 1 1-.23c.59.27 0 1.46-.88 1.44s-.12-1.21-.12-1.21zM36.74 23.06a1 1 0 0 1 1-.23c.58.27 0 1.46-.88 1.45s-.12-1.22-.12-1.22zM41.38 22.2a1 1 0 0 1 0 1.07c-.38.52-1.38-.27-1.23-1.15s1.23.08 1.23.08zM41.47 25.93a.94.94 0 0 1-.84.65c-.65 0-.65-1.31.18-1.68s.66 1.03.66 1.03zM38 26.72a.43.43 0 0 1 0-.72c.33-.46 1.42-.24 1.29.4s-1.29.32-1.29.32zM33.18 34.08a.44.44 0 0 1-.09-.7c.34-.45 1.43-.23 1.3.4s-1.21.3-1.21.3zM32 34.38s-.09.72-.64.57-.71-1.69-.06-1.94.7 1.37.7 1.37zM35.12 25.79a1 1 0 0 1 .72-.79c.64-.12.86 1.18.12 1.69s-.84-.9-.84-.9zM38.64 30.37s.35-.6 1-.1.41 2.06-.54 1.85-.46-1.75-.46-1.75zM39.59 28.13s.35-.63.81-.29 0 1.84-.68 1.82-.13-1.53-.13-1.53zM28.14 55.14c0-1.47-.07-5.8.25-9.44.42-4.26 1.09-5.72.42-6a4.81 4.81 0 0 0-1-.1h-2.5c-1.85 0-3.78.21-4.79.83-2 1.22-2.44 2.94-3.52 4.76a35.09 35.09 0 0 1-2.54 3.36 1.27 1.27 0 0 0-.07.38c.8 1.53 1.06 1.67 1.06 1.67s.25.08.31-.08a7.76 7.76 0 0 0 .12-1.42c.07-.62.75-1.14.72.62s-.3 2.91.35 2.94.48-1.37.48-2.7.07-2.11.48-1.94.36 2.21.25 3.39 0 2.67.48 2.76.39-2.9.34-4.06 0-3.35.45-3.33.35 2.92.25 4.58v2.44c0 .72.31 1.7.64 1.7.61 0 .24-2.4.26-4.18s-.39-4.69.12-4.61.62.59.68 3.2c.06 1.59.13 6.4.65 6.55s.23-2.64.14-4.29 0-4.27 0-4.27 0-1.68.39-1.68.35.61.39 1.47v2.18c.08 2.56.36 7.19 1 7.5s.2-2.58.17-4.77.09-4.75.09-4.75 0-1.13.46-1.15.48.77.47 2.37.21 7.76 1 8.3.31-3.23.15-4.91-.19-5.46.28-5.46.27 1.85.42 4.31.09 4.48.82 4.66c0 .03.34.03.33-.83zM35.11 47.33s-.54-.66.08-1 2.14.85 1.74 1.56-1.82-.55-1.82-.56zM38.22 53.31s-.35.79-.92.48-.26-2.1.59-2.21c.42-.06.5.38.48.82a5.65 5.65 0 0 1-.15.91zM36.05 56.68s-.72.44-1-.16 1.07-1.88 1.77-1.47-.78 1.63-.78 1.63zM33.76 58.05a.51.51 0 0 1-.48-.66c.09-.65 1.33-1 1.55-.33s-1.07 1-1.07 1zM35 53.41a.51.51 0 0 1-.49-.65c.11-.64 1.39-1 1.6-.35s-1.11 1-1.11 1zM31.46 41.46s-.53.32-.68-.39a1.37 1.37 0 0 1 .43-1.07c.29-.29.65-.41.88-.1.46.61-.62 1.6-.63 1.6zM34.29 44.68s.07-.57.8-.47 1 1.32.21 1.53-1-1.06-1-1.06zM30.58 50s0-.81.68-.74 1.12 1.79.37 2.17S30.58 50 30.58 50zM30.39 53.26a1.11 1.11 0 0 1 .95-.82c.78-.07.87 1.43-.07 1.93s-.88-1.11-.88-1.11zM32.32 51.23a1.2 1.2 0 0 1 1-.83c.8-.09.84 1.42-.13 1.93s-.87-1.1-.87-1.1zM30.59 44.12a1.23 1.23 0 0 1 1.07-.85c.86-.08.95 1.42-.09 1.93s-1-1.08-1-1.08zM36.9 39.43a1 1 0 0 1 .65 1c-.14.75-1.85.63-2.17-.36-.16-.49.23-.66.65-.71a4 4 0 0 1 .87 0zM34.22 41.81a1.16 1.16 0 0 1-.61 1.19c-.74.4-1.49-.88-.74-1.75s1.35.59 1.35.59zM33.06 46.25s-.49 0-.4-.63 1.18-1.09 1.35-.39-.95 1-.95 1zM33.28 55.21a.5.5 0 0 1-.48-.65c.09-.65 1.35-1.05 1.56-.34s-1.08 1-1.08 1zM32.37 56.89s.32.77-.32.94-1.7-1.3-1.18-1.92 1.5.98 1.5.98zM30.51 47.72a1 1 0 0 1 .3-1.18c.64-.49 1.69.65 1.16 1.57s-1.46-.39-1.46-.39zM37.76 50.48a1.47 1.47 0 0 1 .1-1.53.68.68 0 0 1 1-.14 1.22 1.22 0 0 1 .37.59 1.68 1.68 0 0 1 0 .89c-.35 1.31-1.51.19-1.51.19zM38.23 46.48s.05-.84.75-.79 1 1.8.23 2.21-1-1.42-1-1.42z"/><path class="cls-4" d="M61.52 37.6h-.12a.29.29 0 0 1-.21-.11 91 91 0 0 0-6.63-8.16 32.34 32.34 0 0 1-2.74-2.89 4.16 4.16 0 0 1-.51-.78 1.08 1.08 0 0 1-.07-.27.41.41 0 0 1 0-.22 10.68 10.68 0 0 1 1.86-2.09 11 11 0 0 1 1.67-1.25 7.18 7.18 0 0 1 .92-.46 4 4 0 0 1 .45-.15l.23-.06h.22a8.08 8.08 0 0 1 1.67-.1 9.78 9.78 0 0 1 1.48.2c1 .19 1.85.49 2.83.71a33.34 33.34 0 0 0 3.9.44c.08 0 .2.13.25.17a5.6 5.6 0 0 1 .09 1.7s-.13.23-.26.16a6.37 6.37 0 0 1-.88-.8c-.38-.33-1.2-.23-.17.86.51.55 1.11 1.13 1.53 1.64a3.55 3.55 0 0 1 .47.7v.15a.78.78 0 0 1 0 .14.35.35 0 0 1-.08.22c-.41.5-1.14-.64-1.92-1.53s-1.82-1.91-2-1.53 1.06 1.67 1.85 2.42S67.21 28.55 67 29s-2.25-1.82-2.92-2.61-2-2.21-2.36-1.9 1.55 2.13 2.64 3.26c.5.51 1.08 1.24 1.54 1.78s.91 1 .68 1.26c-.41.45-1.74-1.19-2.86-2.44s-2.65-3.49-3-3.11-.07.77 1.52 2.64c.94 1.11 4 4.31 3.71 4.84s-1.86-1.41-2.84-2.72-2.67-3.09-2.67-3.09-1.07-1.11-1.32-.91.13.64.64 1.27c.36.45.8.94 1.33 1.58 1.54 1.87 4.42 5 4.16 5.63s-1.87-1.13-3.25-2.82-3-3.45-3-3.45-.72-.78-1-.53.13.84 1.11 2 4.67 5.63 4.4 6.57-2.24-1.87-3.18-3.25-3.25-4.21-3.54-3.9.66 1.64 2.08 3.61 4 4.62 2.65 4.9zM51.91 35.07s.23-.53-.41-.56-1.54 1-1 1.36 1.41-.8 1.41-.8zM53 42.68s.82.14.89-.47-1.54-1.3-2.08-.69S53 42.69 53 42.68zM57.56 39.09a.85.85 0 0 0-1.06-.52c-.84.19-.86 1.78.19 2s.87-1.45.87-1.45zM59.59 41.22s.22-.5-.39-.65-1.47.78-.92 1.22c.27.21.6.07.86-.13a2.47 2.47 0 0 0 .45-.44zM57.17 42.56a.6.6 0 0 0-.1-1c-.62-.49-2.13.21-1.73 1s1.83 0 1.83 0zM47.9 28.52a.47.47 0 0 0-.54-.55c-.63 0-1.22 1.16-.57 1.47s1.12-.92 1.12-.92zM48.51 31.55s-.38-.39-.79.14.09 1.68.77 1.31.02-1.45.02-1.45zM56.29 33.59s-.46-.51-.83-.08.32 1.73 1 1.54-.18-1.46-.17-1.46zM58.33 36.16a1.08 1.08 0 0 0-1.14-.46c-.74.17-.36 1.58.68 1.75s.46-1.29.46-1.29zM53.87 37.27a1.11 1.11 0 0 0-.82-.94c-.75-.18-1.06 1.23-.2 1.87s1.01-.93 1.02-.93zM50.28 29.88a.91.91 0 0 0-1.07 0c-.54.41.22 1.47 1.12 1.23s0-1.25 0-1.25zM45.37 31.08a1.81 1.81 0 0 0-.11.43v.2a.79.79 0 0 0 0 .2.84.84 0 0 0 .24.4c.52.49 1.56-.7 1.18-1.64s-1.35.41-1.35.41zM45.9 34.92a1 1 0 0 0 1.08.49c.74-.18.49-1.66-.51-1.85-.49-.1-.63.24-.66.61a2.67 2.67 0 0 0 .09.75zM49.36 34a.46.46 0 0 0-.8-.11c-.51.5-.25 2 .48 1.85s.32-1.74.32-1.74zM55.83 35.91s-.25-.62-.77-.06-.34 2.19.37 1.92.4-1.86.4-1.86zM59.14 39.72s.29.74.86.44.36-2-.43-2.09-.44 1.66-.43 1.65zM51.7 32.49a1 1 0 0 0-1-.68c-.73.05-.73 1.57.22 1.91s.75-1.23.75-1.23zM50.63 40.76s.73 0 .51-.91-1.87-1.32-2-.34 1.5 1.25 1.5 1.25zM48 36.85s-.53-.6-1-.09.35 2.05 1.16 1.82-.16-1.72-.16-1.73zM34 71.42c.09-.67 1.38-.12 1.59-1s.52-1.16 1-.67-.16 1.46-.71 1.91-2.02.75-1.88-.24zM36 49a1 1 0 0 1 .65 1c-.14.75-1.85.63-2.17-.36-.16-.49.23-.66.65-.71A4 4 0 0 1 36 49zM32.77 48a.8.8 0 0 1 .56-.8c.62-.18 1.08 1 .43 1.51s-1-.71-1-.71zM36.93 45.74s-.49 0-.39-.63 1.17-1.09 1.34-.39-1 1-1 1zM34.83 42.39a1.2 1.2 0 0 1 1-.84c.8-.08.84 1.43-.13 1.94s-.87-1.1-.87-1.1zM33.19 39.84a.49.49 0 0 1-.21-.77c.32-.56 1.67-.49 1.61.25s-1.4.53-1.4.52zM39.11 43s.31.78-.33.95-1.69-1.35-1.17-1.95 1.5 1 1.5 1zM53.63 31.29s-.53-.1-.57.57 1 1.32 1.38.63-.81-1.2-.81-1.2zM49.33 27s-.68 0-.52.87 1.66 1.28 1.87.34S49.33 27 49.33 27zM51 37.84a.47.47 0 0 0-.08-.77c-.49-.39-1.68.17-1.37.8s1.45 0 1.45 0zM51.27 30.43s.28.68.88.49.4-1.66-.41-1.85c-.4-.1-.52.24-.54.61a3.82 3.82 0 0 0 .07.75zM53.84 33.61s-.38-.38-.79.15.09 1.67.77 1.3.02-1.45.02-1.45z"/></svg>